<svg width="60" height="30" viewBox="0 0 60 30" fill="none" xmlns="http://www.w3.org/2000/svg">
<path d="M26.1659 1.32324H25.8715C24.4586 1.32324 23.7345 1.57718 23.2323 3.97829L17.8791 29.6146H16.2241L12.8851 12.8441H12.8484L9.43918 29.6146H7.78651L2.53947 3.32053C2.20596 1.64862 1.7225 1.32247 0.230716 1.32247H0.121368V0.218211H8.04347V1.32324H7.89506C6.75551 1.32324 6.46887 1.64939 6.46887 2.41507C6.46887 2.58591 6.50012 2.92993 6.54153 3.1396L9.88047 20.9428H9.94842L12.1134 9.22622L10.9809 3.32131C10.6998 1.8645 10.3639 1.32324 9.17986 1.32324H9.00024V0.218211H16.8458V1.32324H16.7029C15.3079 1.32324 14.9432 1.81247 14.9408 2.81111C14.9408 3.08524 14.9822 3.39042 15.0478 3.72436L18.3899 20.7223H18.4625L21.6171 3.68553C21.664 3.43701 21.6929 3.09844 21.6929 2.88333C21.6929 1.82722 21.3024 1.32324 19.7466 1.32324H19.5255V0.218211H26.1675V1.32324H26.1659ZM42.0052 22.3282C42.0052 27.4853 38.8585 29.6122 35.1812 29.6122C32.5132 29.6122 31.2933 28.7401 30.01 27.8658L29.318 29.3925H28.5479V19.3757H29.5367V19.6708C29.5367 26.704 33.0998 28.306 34.8898 28.306C37.4955 28.306 38.8124 26.3988 38.8124 23.6685C38.8124 20.3255 36.6964 17.8723 33.6387 15.5823C30.8746 13.4941 28.3245 10.9377 28.3245 6.68377C28.3245 2.28694 31.0441 0 34.3026 0C37.0145 0 38.2741 1.10503 38.9976 1.72317L39.7339 0.29509H40.465V10.3584H39.4762V10.0688C39.4762 4.61115 37.8236 1.32247 34.5627 1.32247C32.5796 1.32247 31.4034 2.76375 31.4034 5.07942C31.4034 7.81987 33.035 9.37453 36.0669 11.7065C39.4207 14.2963 42.0052 17.0267 42.0052 22.3282ZM59.9827 1.32169H59.1815C58.1847 1.32169 57.5653 1.78995 57.5653 2.99827V23.3447C57.5653 27.9116 54.6819 29.6122 50.9962 29.6122C48.3649 29.6122 45.7155 27.472 45.7155 23.3447C45.7155 21.1323 47.1003 20.1771 48.2119 20.1771C49.3623 20.1771 50.1926 20.9847 50.1926 22.3585C50.1926 24.1181 49.1591 24.8605 47.811 25.0523C47.811 26.5611 48.9718 28.3053 50.958 28.3053C52.8708 28.3053 53.5321 27.2523 53.5321 24.1104V2.99827C53.5321 1.79228 52.9495 1.32169 51.952 1.32169H51.0361V0.218987H59.9837V1.32169H59.9827Z" fill="#230B59"/>
</svg>
